# xmcd
#
# Track frame offsets:
# 150
# 21699
# 43829
# 60334
# 77376
# 102299
#
# Disc length: 1586 seconds
#
#
# Revision: 0
# Processed by: cddbd v1.5.1PL0 Copyright (c) Steve Scherf et al.
# Submitted via: FreeRIP 2.53 
#
DISCID=44063006
DTITLE=Cliff Stevens - Cliff Stevens Band
DYEAR=2005
DGENRE=Blues
TTITLE0=Why You So Mean To Me
TTITLE1=That's What Love
TTITLE2=Evening
TTITLE3=I Get Evil
TTITLE4=Got To Be Some Changes Made
TTITLE5=Finger Express
EXTD=BluesfestRadio.com
EXTT0=
EXTT1=
EXTT2=
EXTT3=
EXTT4=
EXTT5=
PLAYORDER=
